<svg width="22" height="23" viewBox="0 0 22 23" fill="none" xmlns="http://www.w3.org/2000/svg">
<path d="M8.65625 1.5C12.6078 1.50016 15.8113 4.70419 15.8115 8.65723C15.8115 12.6104 12.608 15.8153 8.65625 15.8154C4.7044 15.8154 1.5 12.6105 1.5 8.65723C1.50022 4.70409 4.70453 1.5 8.65625 1.5Z" stroke="#989898" stroke-width="3"/>
<path d="M18.9394 21.706C19.5252 22.2919 20.4748 22.2919 21.0606 21.706C21.6463 21.1202 21.6463 20.1703 21.0606 19.5845L18.9394 21.706ZM15.1666 13.6894L14.106 12.6286L11.9849 14.7501L13.0454 15.8109L15.1666 13.6894ZM20 20.6453L21.0606 19.5845L15.1666 13.6894L14.106 14.7501L13.0454 15.8109L18.9394 21.706L20 20.6453Z" fill="#989898"/>
</svg>
